<svg width="41" height="40" viewBox="0 0 41 40" fill="none" xmlns="http://www.w3.org/2000/svg">
<path d="M7.48635 0C3.33924 0 0 3.25779 0 7.30375V32.6962C0 36.7422 3.33924 40 7.48635 40H21.5929V24.3625H17.3546V18.7325H21.5929V13.9225C21.5929 10.1435 24.0972 6.67375 29.866 6.67375C32.2016 6.67375 33.9288 6.89251 33.9288 6.89251L33.793 12.15C33.793 12.15 32.0315 12.1338 30.1094 12.1338C28.0291 12.1338 27.6955 13.0689 27.6955 14.6213V18.7325H33.9583L33.6854 24.3625H27.6955V40H33.5136C37.6608 40 41 36.7422 41 32.6963V7.30379C41 3.25783 37.6608 3.99999e-05 33.5136 3.99999e-05H7.48631L7.48635 0Z" fill="white"/>
</svg>
