<svg width="30" height="30" viewBox="0 0 30 30" fill="none" xmlns="http://www.w3.org/2000/svg">
<path d="M29.4519 12.5652L26.5699 7.04613C26.3408 6.61203 25.9512 6.28453 25.4842 6.13339C25.0171 5.98226 24.5095 6.01941 24.0695 6.23695L21.3414 7.60101H19.421L15.5542 5.85117C15.1464 5.66683 14.6861 5.63429 14.2564 5.75941L8.5527 7.4223L5.93063 6.11133C5.49054 5.89393 4.98299 5.85686 4.51598 6.00798C4.04898 6.1591 3.65937 6.4865 3.43008 6.92051L0.548087 12.4397C0.43286 12.6604 0.362744 12.9019 0.341831 13.15C0.320918 13.3981 0.349627 13.6479 0.426282 13.8848C0.502937 14.1216 0.626004 14.3409 0.788301 14.5297C0.950598 14.7185 1.14888 14.8732 1.37156 14.9845L4.18406 16.3908L10.5155 21.3417C10.7222 21.5038 10.9609 21.6203 11.2158 21.6837L18.0076 23.3817C18.155 23.4185 18.3063 23.4371 18.4582 23.437C18.9566 23.4371 19.4348 23.2399 19.7883 22.8886L24.1004 18.5763C24.1051 18.5718 24.1091 18.5667 24.1136 18.5621L24.131 18.5434C24.1373 18.5364 24.1439 18.5298 24.1501 18.5227L25.9017 16.4735L28.6284 15.1102C28.8511 14.9988 29.0494 14.8441 29.2117 14.6553C29.374 14.4665 29.4971 14.2472 29.5737 14.0103C29.6504 13.7734 29.6791 13.5236 29.6582 13.2755C29.6373 13.0274 29.5671 12.7859 29.4519 12.5652ZM23.288 16.6455L18.8326 13.4053C18.6705 13.2874 18.4748 13.2245 18.2743 13.226C18.0739 13.2275 17.8791 13.2932 17.7188 13.4135L16.2188 14.5385C15.731 14.9014 15.1392 15.0974 14.5313 15.0974C13.9233 15.0974 13.3315 14.9014 12.8438 14.5385L12.2086 14.062L16.7946 9.4759H19.2138L19.2182 9.47613L19.2213 9.4759H20.9944L24.1882 15.5924L23.288 16.6455ZM5.09227 7.78828L7.16484 8.82469L4.28285 14.3437L2.21016 13.3075L5.09227 7.78828ZM18.4624 21.5627L11.6706 19.8647L5.87977 15.3366L9.07149 9.22406L14.7813 7.55953L15.6837 7.96781C15.6076 8.02318 15.5358 8.08413 15.4688 8.15015L10.8826 12.7363C10.6927 12.9262 10.5458 13.1548 10.4519 13.4065C10.3579 13.6581 10.3192 13.927 10.3382 14.195C10.3573 14.4629 10.4337 14.7237 10.5622 14.9595C10.6908 15.1954 10.8686 15.4009 11.0835 15.562L11.7188 16.0383C12.5317 16.6431 13.518 16.9698 14.5313 16.9698C15.5445 16.9698 16.5308 16.6431 17.3438 16.0383L18.2898 15.3288L21.9988 18.0262L18.4624 21.5627ZM27.7898 13.4331L25.7172 14.4695L22.8352 8.95019L24.9079 7.91402L27.7909 13.4325L27.7898 13.4331ZM14.0344 25.1721C14.0047 25.2916 13.9517 25.4041 13.8784 25.5031C13.8052 25.602 13.7131 25.6856 13.6075 25.749C13.5019 25.8123 13.3849 25.8542 13.2631 25.8723C13.1413 25.8903 13.0171 25.8841 12.8977 25.8541L9.36563 24.9712C9.07909 24.8992 8.81348 24.7608 8.5902 24.5673L5.9475 22.2701C5.761 22.1066 5.64684 21.876 5.63003 21.6286C5.61321 21.3811 5.69511 21.1372 5.85779 20.95C6.02046 20.7628 6.25067 20.6477 6.49801 20.6299C6.74535 20.6121 6.98968 20.693 7.1775 20.8549L9.82043 23.1521L13.3525 24.0353C13.5936 24.0956 13.801 24.2492 13.9289 24.4624C14.0568 24.6756 14.0948 24.9308 14.0345 25.172L14.0344 25.1721Z" fill="#DA3D77"/>
</svg>
