<svg width="25" height="25" viewBox="0 0 25 25" fill="none" xmlns="http://www.w3.org/2000/svg">
<path d="M14.5 21.125C13.2692 22.375 11.859 23.6625 10.2564 25C3.42308 19.3125 0 14.4 0 10.25C0 4.025 4.8718 0 10.2564 0C15.3846 0 20.0513 3.65 20.4744 9.375H25L19.2308 15L13.4615 9.375H17.9103C17.5 5.3 14.2692 2.5 10.2564 2.5C5.96154 2.5 2.5641 5.7125 2.5641 10.25C2.5641 13.175 5.0641 17.05 10.2564 21.675C11.0769 20.9375 11.8333 20.225 12.5256 19.5375C12.3 19.1035 12.1815 18.6241 12.1795 18.1375C12.1795 17.3087 12.5172 16.5138 13.1182 15.9278C13.7193 15.3417 14.5346 15.0125 15.3846 15.0125C16.2347 15.0125 17.0499 15.3417 17.651 15.9278C18.2521 16.5138 18.5897 17.3087 18.5897 18.1375C18.5893 18.6209 18.4735 19.0975 18.2514 19.5297C18.0294 19.9619 17.7073 20.3378 17.3105 20.6276C16.9137 20.9175 16.4532 21.1133 15.9654 21.1996C15.4776 21.2859 14.9759 21.2604 14.5 21.125Z" fill="#DA3D77"/>
</svg>
