<svg width="30" height="30" viewBox="0 0 30 30" fill="none" xmlns="http://www.w3.org/2000/svg">
<path d="M23.935 3.71375C23.7123 3.3444 23.3981 3.03869 23.0228 2.82609C22.6475 2.61349 22.2238 2.50118 21.7925 2.5H8.2075C7.335 2.5 6.51375 2.965 6.065 3.71375L2.67875 9.35625C2.56157 9.55051 2.49976 9.77313 2.5 10C2.50499 11.2065 2.94937 12.3699 3.75 13.2725V23.75C3.75 25.1287 4.87125 26.25 6.25 26.25H23.75C25.1288 26.25 26.25 25.1287 26.25 23.75V13.2725C27.0506 12.3699 27.495 11.2065 27.5 10C27.5002 9.77313 27.4384 9.55051 27.3213 9.35625L23.935 3.71375ZM24.98 10.3138C24.9028 10.9173 24.6086 11.4721 24.1522 11.8744C23.6957 12.2768 23.1084 12.4991 22.5 12.5C21.1213 12.5 20 11.3787 20 10C20 9.915 19.9688 9.84 19.9513 9.76L19.9763 9.755L19.025 5H21.7925L24.98 10.3138ZM13.5238 5H16.475L17.4913 10.0812C17.4475 11.4212 16.35 12.5 15 12.5C13.65 12.5 12.5525 11.4212 12.5088 10.0812L13.5238 5ZM8.2075 5H10.975L10.025 9.755L10.05 9.76C10.0313 9.84 10 9.915 10 10C10 11.3787 8.87875 12.5 7.5 12.5C6.89156 12.4991 6.30426 12.2768 5.84785 11.8744C5.39144 11.4721 5.09716 10.9173 5.02 10.3138L8.2075 5ZM12.5 23.75V20H17.5V23.75H12.5ZM20 23.75V20C20 18.6213 18.8788 17.5 17.5 17.5H12.5C11.1213 17.5 10 18.6213 10 20V23.75H6.25V14.8225C6.65125 14.9262 7.065 15 7.5 15C8.20977 15.0004 8.91144 14.8493 9.55813 14.5567C10.2048 14.2642 10.7816 13.837 11.25 13.3037C12.1663 14.3438 13.5088 15 15 15C16.4913 15 17.8338 14.3438 18.75 13.3037C19.2184 13.837 19.7952 14.2642 20.4419 14.5567C21.0886 14.8493 21.7902 15.0004 22.5 15C22.935 15 23.3488 14.9262 23.75 14.8225V23.75H20Z" fill="#DA3D77"/>
</svg>
