<svg width="30" height="30" viewBox="0 0 30 30" fill="none" xmlns="http://www.w3.org/2000/svg">
<path d="M12.5 10V17.5L18.375 21.125L19.375 19.625L14.375 16.625V10H12.5Z" fill="#DA3D77"/>
<path d="M22.4 15C22.5884 16.2424 22.5054 17.5109 22.1565 18.7182C21.8076 19.9254 21.2013 21.0427 20.3792 21.9931C19.5571 22.9435 18.5387 23.7044 17.3943 24.2235C16.2499 24.7426 15.0066 25.0075 13.75 25C8.87502 25 5.00002 21.125 5.00002 16.25C5.00002 11.375 8.87502 7.5 13.75 7.5C14.625 7.5 15.4625 7.625 16.25 7.8625V5.2875C15.45 5.1 14.6125 5 13.75 5C7.50002 5 2.50002 10 2.50002 16.25C2.50002 22.5 7.50002 27.5 13.75 27.5C15.3346 27.5066 16.9026 27.1769 18.3504 26.5329C19.7982 25.8888 21.0929 24.9449 22.1491 23.7635C23.2052 22.5822 23.9987 21.1902 24.4772 19.6796C24.9557 18.1689 25.1084 16.574 24.925 15H22.4Z" fill="#DA3D77"/>
<path d="M25 6.25V2.5H22.5V6.25H18.75V8.75H22.5V12.5H25V8.75H28.75V6.25H25Z" fill="#DA3D77"/>
</svg>
