<svg width="57" height="57" viewBox="0 0 57 57" fill="none" xmlns="http://www.w3.org/2000/svg">
<g clip-path="url(#clip0)">
<path d="M55.8125 15.4542C55.4898 14.3029 54.8611 13.2605 53.9933 12.4379C53.1009 11.5901 52.0073 10.9836 50.8155 10.6757C46.3553 9.50006 28.4858 9.50006 28.4858 9.50006C21.0362 9.4153 13.5884 9.78809 6.1845 10.6163C4.9927 10.9469 3.90109 11.567 3.00675 12.4213C2.128 13.2668 1.4915 14.3094 1.159 15.4518C0.360272 19.7547 -0.0278055 24.1238 9.66364e-07 28.5001C-0.028499 32.8724 0.358626 37.2401 1.159 41.5483C1.48438 42.6859 2.1185 43.7238 2.99963 44.5622C3.88075 45.4006 4.978 46.0062 6.1845 46.3268C10.7041 47.5001 28.4858 47.5001 28.4858 47.5001C35.9448 47.5849 43.4021 47.2122 50.8155 46.3838C52.0073 46.0759 53.1009 45.4694 53.9933 44.6216C54.872 43.7832 55.4966 42.7406 55.8101 41.6053C56.6297 37.3041 57.0282 32.9332 57 28.5547C57.0616 24.1576 56.6637 19.7661 55.8125 15.4518V15.4542ZM22.8048 36.6321V20.3704L37.6723 28.5024L22.8048 36.6321Z" fill="white"/>
</g>
<defs>
<clipPath id="clip0">
<rect width="57" height="57" fill="white"/>
</clipPath>
</defs>
</svg>
